<svg xmlns="http://www.w3.org/2000/svg" xmlns:xlink="http://www.w3.org/1999/xlink" width="5000" zoomAndPan="magnify" viewBox="0 0 3750 3749.999967" height="5000" preserveAspectRatio="xMidYMid meet" version="1.0"><defs><clipPath id="9ddcda23bc"><path d="M 173.578125 173.574219 L 3576.421875 173.574219 L 3576.421875 3576.417969 L 173.578125 3576.417969 Z M 173.578125 173.574219 " clip-rule="nonzero"/></clipPath><clipPath id="f1439ee72d"><path d="M 3576.421875 623.574219 L 3576.421875 3126.417969 C 3576.421875 3374.945312 3374.949219 3576.417969 3126.421875 3576.417969 L 623.578125 3576.417969 C 375.050781 3576.417969 173.578125 3374.945312 173.578125 3126.417969 L 173.578125 623.574219 C 173.578125 375.046875 375.050781 173.574219 623.578125 173.574219 L 3126.421875 173.574219 C 3374.949219 173.574219 3576.421875 375.046875 3576.421875 623.574219 Z M 3576.421875 623.574219 " clip-rule="nonzero"/></clipPath><clipPath id="0f264e9916"><path d="M 0.578125 0.574219 L 3403.421875 0.574219 L 3403.421875 3403.417969 L 0.578125 3403.417969 Z M 0.578125 0.574219 " clip-rule="nonzero"/></clipPath><clipPath id="e3913ba686"><path d="M 3403.421875 450.574219 L 3403.421875 2953.417969 C 3403.421875 3201.945312 3201.949219 3403.417969 2953.421875 3403.417969 L 450.578125 3403.417969 C 202.050781 3403.417969 0.578125 3201.945312 0.578125 2953.417969 L 0.578125 450.574219 C 0.578125 202.046875 202.050781 0.574219 450.578125 0.574219 L 2953.421875 0.574219 C 3201.949219 0.574219 3403.421875 202.046875 3403.421875 450.574219 Z M 3403.421875 450.574219 " clip-rule="nonzero"/></clipPath><clipPath id="367a5ca722"><rect x="0" width="3404" y="0" height="3404"/></clipPath></defs><g clip-path="url(#9ddcda23bc)"><g clip-path="url(#f1439ee72d)"><g transform="matrix(1, 0, 0, 1, 173, 173)"><g clip-path="url(#367a5ca722)"><g clip-path="url(#0f264e9916)"><g clip-path="url(#e3913ba686)"><path fill="#000000" d="M 0.578125 0.574219 L 3403.421875 0.574219 L 3403.421875 3403.417969 L 0.578125 3403.417969 Z M 0.578125 0.574219 " fill-opacity="1" fill-rule="nonzero"/></g></g></g></g></g></g><path fill="#ffffff" d="M 2637.277344 859.828125 C 2451.304688 880.476562 2372.890625 921.96875 2241.8125 1022.277344 L 2026.996094 855.988281 C 1719.25 1009.820312 1470.71875 1193.804688 1228.800781 1193.804688 L 1064.203125 1177.699219 C 1009.328125 1353.589844 893.566406 1490.957031 717.691406 1589.707031 C 838.535156 1622.722656 942.101562 1699.777344 1030.21875 1809.628906 C 1067.820312 1908.832031 960.121094 2108.828125 859.847656 2261.921875 C 759.574219 2415.011719 596.992188 2601.355469 499.269531 2675.671875 C 497.945312 2740.886719 521.660156 2775.335938 591.824219 2819.8125 C 661.976562 2864.300781 724.046875 2898.597656 815.5 2915.15625 C 906.949219 2931.714844 996.550781 2924.507812 1121.457031 2890.710938 C 1246.351562 2856.90625 1368.695312 2745.785156 1411.285156 2590.949219 C 1548.207031 2724.089844 1774.179688 2786.976562 1938.355469 2786.976562 C 2007.996094 2786.964844 2105.785156 2752.59375 2173.601562 2702.875 C 2188.242188 2692.148438 2205.308594 2679.695312 2214.433594 2668.121094 C 2299.015625 2708.9375 2370.519531 2740.269531 2449.597656 2760.203125 C 2528.695312 2780.136719 2669.265625 2810.277344 2777.058594 2785.226562 C 2884.859375 2760.179688 2978.574219 2706.183594 2994.128906 2625.980469 C 3016.960938 2508.199219 2935.417969 2410.90625 2814.613281 2349.324219 C 2693.808594 2287.722656 2652.609375 2268.3125 2634.503906 2224.113281 C 2616.40625 2179.917969 2640.5625 2112.175781 2653.585938 2057.75 C 2666.625 2003.347656 2658.679688 1946.492188 2636.296875 1911.671875 C 2613.902344 1876.863281 2585.195312 1851.167969 2549.226562 1817.472656 C 2513.246094 1783.78125 2491.921875 1752.5 2496.144531 1684.511719 C 2500.347656 1616.507812 2523.242188 1527.863281 2523.242188 1527.863281 C 2521.796875 1524.007812 2544.769531 1450.574219 2599.960938 1428.085938 C 2647.6875 1408.636719 2703.140625 1404.113281 2704.789062 1406.585938 C 2704.789062 1406.585938 2802.707031 1384.234375 2837.855469 1448.058594 C 2873.003906 1511.882812 2821.449219 1539.78125 2756.617188 1584.898438 C 2694.390625 1628.207031 2652.363281 1651.664062 2644.695312 1737.714844 C 2634.546875 1851.59375 2764.296875 1898.792969 2860.300781 1892.054688 C 3000.613281 1882.207031 3040.230469 1863.699219 3143.953125 1771.078125 C 3170.761719 1747.140625 3227.949219 1664.4375 3238.070312 1635.019531 C 3287.4375 1491.542969 3293.3125 1461.03125 3290.761719 1384.789062 C 3287.113281 1275.839844 3223.679688 1202.800781 3124.898438 1136.769531 C 3124.921875 1136.785156 3087.972656 987.46875 2985.8125 929.339844 C 2883.652344 871.214844 2823.253906 839.167969 2637.277344 859.828125 Z M 2619.871094 941.574219 C 2717.136719 928.492188 2852.886719 925.78125 2937.445312 990.707031 C 3003.417969 1041.355469 3065.296875 1088.441406 3054.367188 1182.464844 C 3139.183594 1219.765625 3214.945312 1311.667969 3218.371094 1381.613281 C 3222.675781 1469.601562 3195.484375 1576.058594 3129.503906 1674.972656 C 3063.460938 1773.792969 2948.355469 1827.605469 2860.535156 1827.605469 C 2794.484375 1827.605469 2707.363281 1810.574219 2710.246094 1743.539062 C 2713.269531 1673.355469 2768.496094 1663.683594 2843.941406 1606.589844 C 2891.710938 1570.4375 2942.960938 1538.605469 2928.699219 1478.835938 C 2913.929688 1416.910156 2900.699219 1364.78125 2765.082031 1296.304688 C 2676.960938 1274.3125 2594.914062 1237.769531 2523.570312 1193.804688 C 2452.15625 1149.898438 2395.804688 1110.539062 2329.804688 1066.5625 C 2399.25 1011.160156 2532.277344 953.367188 2619.871094 941.574219 Z M 2020.820312 1441.238281 C 2097.675781 1441.238281 2260.941406 1480.066406 2425.765625 1534.851562 L 2408.46875 1669.601562 C 2408.46875 1669.601562 2305.578125 1646.132812 2204.46875 1650.941406 C 2103.371094 1655.761719 2038.195312 1687.507812 2038.195312 1687.507812 C 2038.195312 1687.507812 2006.5625 1841.550781 2018.21875 1983.835938 C 2029.855469 2126.125 2065.914062 2262.199219 2065.914062 2262.199219 C 2065.914062 2262.199219 2006.042969 2272.457031 1965.347656 2271.714844 C 1924.644531 2270.988281 1884.296875 2260.398438 1884.296875 2260.398438 L 1862.773438 2315.335938 C 1859.566406 2323.128906 1865.675781 2331.472656 1874.105469 2331.433594 L 1997.554688 2330.839844 C 1998.066406 2330.839844 1998.230469 2330.910156 1998.742188 2330.839844 L 2151.425781 2309.964844 C 2107.4375 2145.253906 2072.414062 1940.445312 2103.113281 1754.273438 C 2103.113281 1754.273438 2177.132812 1719.128906 2251.621094 1718.199219 C 2326.101562 1717.253906 2401.308594 1750.683594 2401.308594 1750.683594 L 2394.65625 1825.269531 C 2394.441406 1827.667969 2392.289062 1829.398438 2389.910156 1829.121094 L 2317.222656 1820.449219 C 2207.265625 1820.449219 2152.617188 1853.472656 2152.617188 1919.425781 C 2152.617188 1985.464844 2169.082031 2018.410156 2202.121094 2018.410156 L 2217.621094 2002.898438 C 2218.125 2002.402344 2218.214844 2001.816406 2218.214844 2001.113281 L 2218.214844 1969.511719 C 2218.214844 1969.234375 2218.742188 1968.585938 2218.8125 1968.324219 L 2229.546875 1934.925781 C 2230.5 1932.085938 2240.792969 1923.117188 2240.792969 1926.132812 C 2240.792969 1970.25 2273.074219 2000.773438 2301.125 2001.707031 C 2329.179688 2002.648438 2373.285156 1977.859375 2373.285156 1977.859375 C 2373.285156 1977.859375 2383.769531 2052.871094 2352.339844 2164.488281 C 2320.921875 2276.097656 2255.285156 2421.082031 2255.285156 2421.082031 C 2255.285156 2421.082031 2126.234375 2453.015625 2018.429688 2454.714844 C 1910.617188 2456.429688 1800.148438 2426.234375 1800.148438 2426.234375 C 1800.148438 2426.234375 1773.3125 2442.632812 1773.3125 2463.199219 C 1773.3125 2483.777344 1790.601562 2493.015625 1790.601562 2493.015625 C 1790.601562 2493.015625 1888.859375 2515.777344 1998.714844 2517.5 C 2108.558594 2519.230469 2236.609375 2488.496094 2236.609375 2488.496094 C 2192.625 2620.261719 2047.804688 2710.640625 1937.921875 2710.640625 C 1728.957031 2710.640625 1548.847656 2647.882812 1428.003906 2504.941406 C 1428.003906 2504.941406 1396.605469 2404.175781 1399.816406 2235.425781 C 1402.960938 2069.992188 1395.414062 1837.703125 1395.414062 1837.703125 L 1400.5625 1639.1875 C 1620.414062 1518.375 1844.882812 1441.238281 2020.820312 1441.238281 Z M 1705.9375 1693.140625 C 1625.023438 1682.773438 1548.304688 1712.28125 1449.378906 1778.015625 L 1509.105469 1837.152344 C 1575.085938 1793.09375 1642.636719 1768.542969 1707.109375 1770.964844 C 1771.570312 1773.375 1822.816406 1787.660156 1822.816406 1787.660156 L 1852.082031 1696.910156 C 1852.082031 1696.910156 1786.855469 1703.507812 1705.9375 1693.140625 Z M 1315.871094 1686.886719 C 1315.871094 1686.898438 1325.929688 2002.167969 1322.445312 2222.914062 C 1318.925781 2443.664062 1347.179688 2535.3125 1294.671875 2647.09375 C 1240.117188 2763.214844 1080.75 2837.554688 953.207031 2847.246094 C 788.621094 2859.746094 644.824219 2767.476562 578.84375 2701.4375 C 766.066406 2577.019531 1106.324219 2111.417969 1139.351562 1803.753906 Z M 1723.8125 1853.25 C 1624.960938 1853.25 1557.417969 1880.746094 1502.40625 1935.53125 L 1525.554688 2000.53125 C 1525.554688 2033.546875 1536.914062 2051.199219 1592.003906 2051.199219 C 1635.921875 2051.199219 1617.664062 2020.472656 1617.664062 1965.390625 L 1679.074219 1947.453125 C 1681.207031 1945.324219 1685.207031 1947.753906 1683.851562 1950.429688 L 1674.308594 1968.914062 C 1674.308594 2012.890625 1695.933594 2034.507812 1739.910156 2034.507812 C 1783.96875 2034.507812 1806.113281 2012.890625 1806.113281 1968.914062 C 1806.113281 1965.914062 1810.542969 1964.875 1811.476562 1967.726562 L 1822.816406 2001.707031 C 1822.898438 2001.984375 1822.816406 2002.027344 1822.816406 2002.3125 L 1822.816406 2033.902344 C 1822.816406 2034.601562 1822.921875 2035.203125 1823.402344 2035.695312 L 1838.914062 2051.199219 C 1871.867188 2051.199219 1888.417969 2018.253906 1888.417969 1952.222656 C 1888.417969 1886.265625 1833.695312 1853.25 1723.8125 1853.25 Z M 2473.25 1848.050781 C 2473.25 1848.050781 2580.089844 1921.269531 2590.015625 1987.402344 C 2599.960938 2053.527344 2563.921875 2132.25 2564.25 2183.136719 C 2564.496094 2220.984375 2570.246094 2258.527344 2590.394531 2285.421875 C 2597.359375 2294.691406 2723.878906 2374.070312 2736.53125 2386.34375 C 2791.550781 2419.144531 2823.226562 2434.292969 2900.167969 2500.261719 C 2900.167969 2500.261719 2952.890625 2561.476562 2922.144531 2629.292969 C 2891.40625 2697.109375 2756.457031 2721.082031 2635.609375 2721.082031 C 2514.691406 2721.082031 2346.9375 2664.40625 2259.128906 2609.554688 C 2347.410156 2419.25 2400.9375 2277.734375 2418.839844 2219.253906 C 2452.6875 2108.695312 2471.238281 1968.199219 2473.25 1848.050781 Z M 2011.273438 2586.035156 L 1907.5 2587.222656 C 1897.664062 2587.304688 1887.875 2588.167969 1878.277344 2590.199219 L 1860.386719 2593.785156 C 1858.394531 2594.277344 1857.75 2597.097656 1859.195312 2598.550781 L 1884.234375 2616.445312 C 1888.367188 2619.316406 1893.503906 2620.578125 1898.546875 2620.621094 L 2022.605469 2621.203125 C 2027.75 2621.222656 2032.589844 2619.246094 2036.917969 2616.445312 L 2064.949219 2598.550781 C 2066.898438 2597.28125 2066.015625 2594.296875 2063.75 2593.785156 L 2049.4375 2590.199219 C 2036.96875 2587.222656 2024.089844 2585.878906 2011.273438 2586.035156 Z M 2011.273438 2586.035156 " fill-opacity="1" fill-rule="nonzero"/></svg>