<svg xmlns="http://www.w3.org/2000/svg" xmlns:xlink="http://www.w3.org/1999/xlink" width="2000" zoomAndPan="magnify" viewBox="0 0 1500 1499.999933" height="2000" preserveAspectRatio="xMidYMid meet" version="1.0"><path fill="#0b53bf" d="M 749.953125 1494.703125 C 762.144531 1494.707031 774.328125 1494.410156 786.503906 1493.816406 C 798.679688 1493.222656 810.835938 1492.332031 822.96875 1491.140625 C 835.101562 1489.949219 847.195312 1488.460938 859.257812 1486.675781 C 871.316406 1484.890625 883.324219 1482.8125 895.28125 1480.4375 C 907.238281 1478.0625 919.132812 1475.394531 930.957031 1472.4375 C 942.785156 1469.476562 954.53125 1466.230469 966.199219 1462.695312 C 977.867188 1459.160156 989.441406 1455.339844 1000.917969 1451.234375 C 1012.398438 1447.132812 1023.769531 1442.75 1035.035156 1438.085938 C 1046.300781 1433.421875 1057.441406 1428.488281 1068.464844 1423.277344 C 1079.484375 1418.066406 1090.375 1412.589844 1101.125 1406.847656 C 1111.878906 1401.101562 1122.484375 1395.097656 1132.941406 1388.832031 C 1143.402344 1382.566406 1153.699219 1376.050781 1163.835938 1369.277344 C 1173.976562 1362.507812 1183.941406 1355.492188 1193.734375 1348.230469 C 1203.527344 1340.972656 1213.136719 1333.476562 1222.5625 1325.742188 C 1231.988281 1318.011719 1241.21875 1310.054688 1250.253906 1301.867188 C 1259.285156 1293.683594 1268.113281 1285.28125 1276.738281 1276.660156 C 1285.359375 1268.042969 1293.765625 1259.21875 1301.953125 1250.183594 C 1310.140625 1241.152344 1318.101562 1231.925781 1325.839844 1222.503906 C 1333.574219 1213.082031 1341.074219 1203.472656 1348.335938 1193.683594 C 1355.601562 1183.890625 1362.617188 1173.929688 1369.394531 1163.792969 C 1376.167969 1153.65625 1382.6875 1143.363281 1388.957031 1132.90625 C 1395.226562 1122.449219 1401.234375 1111.847656 1406.984375 1101.097656 C 1412.730469 1090.34375 1418.210938 1079.460938 1423.425781 1068.441406 C 1428.636719 1057.417969 1433.578125 1046.277344 1438.246094 1035.015625 C 1442.910156 1023.753906 1447.296875 1012.382812 1451.40625 1000.902344 C 1455.515625 989.425781 1459.335938 977.855469 1462.878906 966.1875 C 1466.417969 954.523438 1469.667969 942.777344 1472.632812 930.949219 C 1475.59375 919.125 1478.265625 907.234375 1480.644531 895.277344 C 1483.023438 883.320312 1485.105469 871.3125 1486.894531 859.253906 C 1488.683594 847.195312 1490.175781 835.097656 1491.371094 822.964844 C 1492.566406 810.835938 1493.464844 798.679688 1494.0625 786.503906 C 1494.660156 774.328125 1494.960938 762.144531 1494.960938 749.953125 C 1494.960938 737.761719 1494.660156 725.578125 1494.0625 713.402344 C 1493.464844 701.226562 1492.566406 689.070312 1491.371094 676.9375 C 1490.175781 664.804688 1488.683594 652.710938 1486.894531 640.652344 C 1485.105469 628.59375 1483.023438 616.585938 1480.644531 604.628906 C 1478.265625 592.671875 1475.59375 580.78125 1472.632812 568.953125 C 1469.667969 557.128906 1466.417969 545.382812 1462.878906 533.714844 C 1459.335938 522.050781 1455.515625 510.480469 1451.40625 499 C 1447.296875 487.523438 1442.910156 476.152344 1438.246094 464.890625 C 1433.578125 453.625 1428.636719 442.484375 1423.425781 431.464844 C 1418.210938 420.445312 1412.730469 409.558594 1406.984375 398.808594 C 1401.234375 388.058594 1395.226562 377.453125 1388.957031 367 C 1382.6875 356.542969 1376.167969 346.246094 1369.394531 336.109375 C 1362.617188 325.976562 1355.601562 316.011719 1348.335938 306.222656 C 1341.074219 296.429688 1333.574219 286.824219 1325.839844 277.402344 C 1318.101562 267.976562 1310.140625 258.75 1301.953125 249.71875 C 1293.765625 240.6875 1285.359375 231.863281 1276.738281 223.242188 C 1268.113281 214.625 1259.285156 206.222656 1250.253906 198.039062 C 1241.21875 189.851562 1231.988281 181.894531 1222.5625 174.160156 C 1213.136719 166.429688 1203.527344 158.933594 1193.734375 151.671875 C 1183.941406 144.414062 1173.976562 137.398438 1163.835938 130.625 C 1153.699219 123.855469 1143.402344 117.335938 1132.941406 111.074219 C 1122.484375 104.808594 1111.878906 98.800781 1101.125 93.058594 C 1090.375 87.3125 1079.488281 81.835938 1068.464844 76.628906 C 1057.441406 71.417969 1046.300781 66.480469 1035.035156 61.820312 C 1023.769531 57.15625 1012.398438 52.773438 1000.917969 48.667969 C 989.441406 44.566406 977.867188 40.746094 966.199219 37.210938 C 954.53125 33.675781 942.785156 30.425781 930.957031 27.46875 C 919.132812 24.511719 907.238281 21.84375 895.28125 19.46875 C 883.324219 17.09375 871.316406 15.015625 859.257812 13.230469 C 847.195312 11.445312 835.101562 9.957031 822.96875 8.765625 C 810.835938 7.574219 798.679688 6.679688 786.503906 6.085938 C 774.328125 5.492188 762.144531 5.199219 749.953125 5.203125 C 737.765625 5.207031 725.589844 5.507812 713.417969 6.113281 C 701.246094 6.714844 689.097656 7.613281 676.972656 8.8125 C 664.84375 10.011719 652.753906 11.503906 640.703125 13.296875 C 628.648438 15.089844 616.644531 17.175781 604.695312 19.554688 C 592.746094 21.9375 580.859375 24.609375 569.039062 27.574219 C 557.21875 30.539062 545.480469 33.792969 533.820312 37.332031 C 522.160156 40.871094 510.59375 44.695312 499.121094 48.804688 C 487.648438 52.914062 476.285156 57.300781 465.027344 61.96875 C 453.769531 66.632812 442.636719 71.574219 431.621094 76.785156 C 420.605469 82 409.726562 87.476562 398.980469 93.226562 C 388.234375 98.972656 377.636719 104.980469 367.1875 111.246094 C 356.734375 117.511719 346.445312 124.03125 336.316406 130.804688 C 326.183594 137.578125 316.226562 144.59375 306.441406 151.855469 C 296.652344 159.117188 287.050781 166.613281 277.632812 174.34375 C 268.214844 182.078125 258.992188 190.035156 249.964844 198.222656 C 240.9375 206.40625 232.117188 214.808594 223.5 223.425781 C 214.886719 232.042969 206.488281 240.867188 198.304688 249.898438 C 190.125 258.929688 182.167969 268.152344 174.4375 277.574219 C 166.710938 286.996094 159.214844 296.601562 151.957031 306.390625 C 144.699219 316.179688 137.6875 326.136719 130.917969 336.273438 C 124.148438 346.40625 117.632812 356.699219 111.371094 367.148438 C 105.105469 377.601562 99.105469 388.203125 93.359375 398.949219 C 87.617188 409.699219 82.140625 420.578125 76.933594 431.597656 C 71.722656 442.613281 66.789062 453.75 62.125 465.007812 C 57.464844 476.265625 53.082031 487.632812 48.976562 499.105469 C 44.871094 510.582031 41.050781 522.148438 37.515625 533.808594 C 33.976562 545.46875 30.730469 557.210938 27.769531 569.03125 C 24.808594 580.851562 22.140625 592.738281 19.761719 604.691406 C 17.386719 616.640625 15.304688 628.644531 13.515625 640.699219 C 11.730469 652.753906 10.238281 664.84375 9.042969 676.96875 C 7.851562 689.097656 6.953125 701.246094 6.355469 713.417969 C 5.757812 725.589844 5.460938 737.765625 5.460938 749.953125 C 5.460938 762.136719 5.757812 774.316406 6.355469 786.488281 C 6.953125 798.660156 7.851562 810.808594 9.042969 822.933594 C 10.238281 835.0625 11.730469 847.152344 13.515625 859.207031 C 15.304688 871.261719 17.386719 883.261719 19.761719 895.214844 C 22.140625 907.167969 24.808594 919.050781 27.769531 930.871094 C 30.730469 942.695312 33.976562 954.433594 37.515625 966.097656 C 41.050781 977.757812 44.871094 989.324219 48.976562 1000.796875 C 53.082031 1012.273438 57.464844 1023.636719 62.125 1034.898438 C 66.789062 1046.15625 71.722656 1057.292969 76.933594 1068.308594 C 82.140625 1079.324219 87.617188 1090.207031 93.359375 1100.953125 C 99.105469 1111.703125 105.105469 1122.300781 111.371094 1132.753906 C 117.632812 1143.207031 124.148438 1153.5 130.917969 1163.632812 C 137.6875 1173.765625 144.699219 1183.726562 151.957031 1193.515625 C 159.214844 1203.304688 166.710938 1212.910156 174.4375 1222.328125 C 182.167969 1231.75 190.125 1240.976562 198.304688 1250.007812 C 206.488281 1259.039062 214.886719 1267.859375 223.5 1276.480469 C 232.117188 1285.097656 240.9375 1293.5 249.964844 1301.683594 C 258.992188 1309.871094 268.214844 1317.828125 277.632812 1325.558594 C 287.050781 1333.292969 296.652344 1340.789062 306.441406 1348.050781 C 316.226562 1355.3125 326.183594 1362.328125 336.316406 1369.101562 C 346.445312 1375.871094 356.734375 1382.390625 367.1875 1388.660156 C 377.636719 1394.925781 388.234375 1400.933594 398.980469 1406.679688 C 409.726562 1412.425781 420.605469 1417.90625 431.621094 1423.121094 C 442.636719 1428.332031 453.769531 1433.273438 465.027344 1437.9375 C 476.285156 1442.605469 487.648438 1446.992188 499.121094 1451.101562 C 510.59375 1455.207031 522.160156 1459.03125 533.820312 1462.574219 C 545.480469 1466.113281 557.21875 1469.367188 569.039062 1472.332031 C 580.859375 1475.296875 592.746094 1477.96875 604.695312 1480.347656 C 616.644531 1482.730469 628.648438 1484.816406 640.703125 1486.609375 C 652.753906 1488.398438 664.84375 1489.894531 676.972656 1491.09375 C 689.097656 1492.292969 701.246094 1493.191406 713.417969 1493.792969 C 725.589844 1494.394531 737.765625 1494.699219 749.953125 1494.703125 " fill-opacity="1" fill-rule="nonzero"/><path stroke-linecap="butt" transform="matrix(82.749998, 0, 0, 82.749998, -243.047495, -243.047548)" fill-opacity="1" fill="#ffffff" fill-rule="nonzero" stroke-linejoin="miter" d="M 13.913008 14.142994 C 13.717153 14.222252 13.51568 14.282722 13.308542 14.324404 C 13.101452 14.366087 12.892238 14.38832 12.680993 14.391011 C 11.866983 14.391011 11.10098 14.044004 10.734005 13.209978 L 12.523988 13.209978 L 12.871987 12.365992 L 10.526018 12.365992 C 10.503595 12.121987 10.503595 11.877982 10.526018 11.633977 L 13.169995 11.633977 L 13.518984 10.790983 L 10.734005 10.790983 C 11.10098 9.956013 11.866983 9.609006 12.680993 9.609006 C 13.09102 9.609006 13.518984 9.698979 13.913008 9.856976 L 14.272997 9.001991 C 14.151679 8.939538 14.027104 8.884591 13.899177 8.83715 C 13.77125 8.789708 13.640963 8.750103 13.508269 8.718333 C 13.375574 8.686611 13.241464 8.662914 13.105937 8.647289 C 12.97041 8.631664 12.834411 8.624253 12.697987 8.625008 C 11.381003 8.625008 10.049007 9.360988 9.567983 10.790983 L 8.703982 10.790983 L 8.703982 11.633977 L 9.393984 11.633977 C 9.371562 11.877982 9.371562 12.121987 9.393984 12.365992 L 8.703982 12.365992 L 8.703982 13.209978 L 9.566992 13.209978 C 10.049007 14.638981 11.381003 15.375008 12.696996 15.375008 C 12.833514 15.375811 12.96956 15.3684 13.105181 15.352775 C 13.240803 15.337197 13.375008 15.313547 13.507797 15.281778 C 13.640538 15.250008 13.77092 15.210403 13.898941 15.162914 C 14.026915 15.115473 14.151632 15.060479 14.272997 14.997979 Z M 13.913008 14.142994 " stroke="#0b53bf" stroke-width="0.03" stroke-opacity="1" stroke-miterlimit="10"/><path stroke-linecap="butt" transform="matrix(82.749998, 0, 0, 82.749998, -243.047495, -243.047548)" fill-opacity="1" fill="#ffffff" fill-rule="nonzero" stroke-linejoin="miter" d="M 6.375008 12.000008 C 6.375055 11.925046 6.376613 11.850084 6.379634 11.775169 C 6.382655 11.700254 6.387187 11.625433 6.393229 11.550707 C 6.399271 11.475981 6.406777 11.401396 6.415746 11.326953 C 6.424762 11.25251 6.435242 11.178303 6.447185 11.104285 C 6.459175 11.030267 6.472581 10.956532 6.487498 10.883033 C 6.502368 10.809534 6.518748 10.736413 6.536545 10.663575 C 6.554388 10.590737 6.573648 10.518277 6.594324 10.446241 C 6.615047 10.374159 6.637187 10.302548 6.660742 10.231362 C 6.684298 10.160224 6.709269 10.08951 6.735657 10.019363 C 6.762045 9.949168 6.789802 9.87954 6.818975 9.810478 C 6.848101 9.741417 6.878642 9.672922 6.910506 9.605088 C 6.942417 9.537206 6.97565 9.470033 7.010204 9.403473 C 7.044758 9.336961 7.080635 9.271156 7.117832 9.20606 C 7.15503 9.140964 7.193503 9.076623 7.23325 9.013037 C 7.273044 8.949498 7.314018 8.886715 7.356314 8.824782 C 7.398563 8.762848 7.442039 8.701812 7.486743 8.641625 C 7.531446 8.581438 7.577283 8.522148 7.624347 8.463755 C 7.671411 8.405409 7.719607 8.348007 7.768984 8.291549 C 7.818314 8.235091 7.868777 8.179672 7.920325 8.125244 C 7.97192 8.070816 8.024507 8.017427 8.078227 7.965076 C 8.1319 7.912773 8.186611 7.861508 8.24236 7.811375 C 8.298063 7.761196 8.354804 7.712197 8.412489 7.664283 C 8.470174 7.616417 8.528756 7.569683 8.588329 7.52413 C 8.647902 7.478577 8.708325 7.434251 8.769645 7.391105 C 8.830965 7.34796 8.893087 7.306041 8.956107 7.265397 C 9.019079 7.224706 9.082853 7.185337 9.14743 7.147195 C 9.212007 7.1091 9.277292 7.07228 9.343333 7.036734 C 9.409326 7.001236 9.476075 6.967059 9.543437 6.934204 C 9.610846 6.901349 9.678869 6.869863 9.747506 6.839699 C 9.816142 6.809534 9.885393 6.780786 9.955163 6.753407 C 10.024979 6.726028 10.095268 6.700065 10.166124 6.675471 C 10.236932 6.650877 10.308259 6.627746 10.380011 6.605984 L 10.380011 5.446005 C 10.289235 5.468333 10.198979 5.492503 10.109241 5.518607 C 10.019504 5.544665 9.930332 5.57261 9.841775 5.602397 C 9.75317 5.632183 9.665274 5.663811 9.577991 5.697233 C 9.490708 5.730701 9.404181 5.765964 9.318408 5.802973 C 9.232589 5.840029 9.147572 5.878832 9.063405 5.919429 C 8.979237 5.960025 8.89592 6.002321 8.813499 6.046364 C 8.731078 6.090407 8.649602 6.136149 8.569069 6.18359 C 8.488537 6.231032 8.409043 6.280125 8.33054 6.330824 C 8.252085 6.38157 8.174668 6.433921 8.098384 6.487924 C 8.022053 6.541879 7.946902 6.597393 7.872931 6.654464 C 7.798912 6.711583 7.726169 6.770165 7.654605 6.830258 C 7.583042 6.890397 7.512753 6.951953 7.443739 7.01502 C 7.374772 7.078039 7.307126 7.142474 7.240803 7.208326 C 7.174479 7.274177 7.109571 7.341398 7.046033 7.40994 C 6.982542 7.478483 6.920466 7.548347 6.859855 7.619485 C 6.799243 7.690624 6.740142 7.76299 6.682504 7.836583 C 6.624913 7.910176 6.56888 7.98495 6.514358 8.060856 C 6.459883 8.136762 6.406966 8.213802 6.355701 8.291927 C 6.304388 8.370052 6.254775 8.449215 6.206767 8.529417 C 6.158759 8.609572 6.112451 8.690765 6.067842 8.772856 C 6.023233 8.854993 5.980323 8.93798 5.93916 9.021912 C 5.897997 9.105796 5.85858 9.190529 5.820957 9.276066 C 5.783287 9.361602 5.747458 9.447894 5.713376 9.534893 C 5.679341 9.62194 5.6471 9.709648 5.616699 9.798016 C 5.586299 9.886385 5.55774 9.975367 5.531022 10.064916 C 5.504303 10.154465 5.479473 10.244532 5.456531 10.33512 C 5.43359 10.425754 5.412489 10.516766 5.393323 10.60825 C 5.374158 10.699687 5.356881 10.791549 5.341539 10.883741 C 5.326197 10.975886 5.312791 11.068362 5.301273 11.16112 C 5.289755 11.253879 5.280172 11.346827 5.272572 11.439963 C 5.264925 11.533099 5.259213 11.626377 5.255436 11.71975 C 5.251707 11.813122 5.249866 11.906542 5.250008 12.000008 C 5.249866 12.093428 5.251707 12.186847 5.255483 12.28022 C 5.25926 12.373592 5.264972 12.466823 5.272619 12.559959 C 5.280266 12.653096 5.289849 12.746043 5.301367 12.838802 C 5.312885 12.931513 5.326339 13.023989 5.341681 13.116134 C 5.35707 13.208326 5.374347 13.300141 5.393512 13.391577 C 5.412678 13.483062 5.433778 13.574074 5.45672 13.664661 C 5.479709 13.755248 5.504539 13.845269 5.531258 13.934818 C 5.557976 14.024366 5.586535 14.113349 5.616935 14.201717 C 5.647336 14.290039 5.679577 14.377746 5.713659 14.464746 C 5.747695 14.551793 5.783571 14.638037 5.821193 14.723573 C 5.858863 14.80911 5.89828 14.893796 5.939443 14.97768 C 5.980606 15.061612 6.023516 15.144599 6.068125 15.226689 C 6.112781 15.308779 6.15909 15.389925 6.207051 15.470127 C 6.255059 15.550282 6.304719 15.629446 6.355984 15.707524 C 6.407296 15.785649 6.460166 15.862688 6.514688 15.938594 C 6.569164 16.0145 6.625244 16.089227 6.682834 16.16282 C 6.740425 16.236413 6.799526 16.308732 6.860138 16.379871 C 6.92075 16.451009 6.982825 16.520826 7.046363 16.589368 C 7.109855 16.657911 7.174762 16.725084 7.241086 16.790936 C 7.307409 16.856787 7.375055 16.921223 7.444022 16.984242 C 7.513036 17.047261 7.583325 17.108817 7.654841 17.168957 C 7.726405 17.229049 7.799196 17.287631 7.873167 17.344703 C 7.947138 17.401774 8.022289 17.457335 8.098573 17.511243 C 8.174904 17.565199 8.252273 17.61755 8.330776 17.668296 C 8.409232 17.719042 8.488726 17.768088 8.569258 17.81553 C 8.649743 17.862971 8.73122 17.908666 8.813641 17.952709 C 8.896061 17.996751 8.979379 18.039047 9.063546 18.079644 C 9.147713 18.120241 9.23273 18.159044 9.318503 18.196053 C 9.404275 18.233109 9.490803 18.268324 9.578085 18.301793 C 9.665321 18.335214 9.753265 18.366842 9.841822 18.396629 C 9.93038 18.426415 10.019551 18.454314 10.109288 18.480418 C 10.199026 18.506476 10.289283 18.530692 10.380011 18.55302 L 10.380011 17.393985 C 10.308212 17.372365 10.236837 17.349281 10.165982 17.324782 C 10.095079 17.300282 10.024743 17.274366 9.954879 17.247082 C 9.885015 17.21975 9.815765 17.191049 9.747034 17.160979 C 9.67835 17.130909 9.61028 17.09947 9.542823 17.066663 C 9.475366 17.033902 9.408618 16.999725 9.34253 16.964274 C 9.276443 16.928823 9.21111 16.89205 9.146486 16.853955 C 9.081909 16.815907 9.018087 16.776538 8.955021 16.735894 C 8.892002 16.695297 8.829785 16.653426 8.768418 16.61028 C 8.707051 16.567182 8.646581 16.522856 8.587007 16.477303 C 8.527387 16.431797 8.46871 16.38511 8.411025 16.337197 C 8.353293 16.289331 8.296505 16.240331 8.240755 16.190199 C 8.185006 16.14002 8.130247 16.088802 8.076528 16.036451 C 8.022808 15.984147 7.970127 15.930758 7.918578 15.87633 C 7.866983 15.821902 7.816473 15.766436 7.767096 15.709978 C 7.717766 15.653521 7.669522 15.596119 7.622459 15.537726 C 7.575348 15.47938 7.529464 15.42009 7.48476 15.359855 C 7.440057 15.299621 7.396581 15.238537 7.354284 15.176604 C 7.312036 15.11467 7.271014 15.051887 7.231267 14.988301 C 7.19152 14.924716 7.153048 14.860328 7.11585 14.795231 C 7.078652 14.730088 7.042776 14.664236 7.008221 14.597676 C 6.973667 14.531117 6.940482 14.463896 6.908571 14.396015 C 6.876707 14.328133 6.846212 14.259591 6.817087 14.19053 C 6.787961 14.121421 6.760204 14.051746 6.733863 13.981504 C 6.707523 13.911309 6.682598 13.840596 6.65909 13.769363 C 6.635534 13.698177 6.613442 13.626519 6.592813 13.554436 C 6.572138 13.482306 6.552925 13.409846 6.535176 13.336961 C 6.517426 13.264123 6.501093 13.190907 6.486271 13.117408 C 6.471448 13.043909 6.458089 12.970127 6.446193 12.896062 C 6.434298 12.821997 6.423912 12.747743 6.414991 12.6733 C 6.406069 12.598809 6.39861 12.524225 6.392662 12.449451 C 6.386762 12.374678 6.382277 12.299857 6.379351 12.224895 C 6.376424 12.14998 6.37496 12.075018 6.375008 12.000008 Z M 13.620004 5.446997 L 13.620004 6.605984 C 13.691756 6.627746 13.763036 6.650877 13.833892 6.675471 C 13.9047 6.700065 13.975036 6.726028 14.044806 6.753407 C 14.114623 6.780786 14.183826 6.809534 14.25251 6.839699 C 14.321146 6.869863 14.389169 6.901349 14.456579 6.934204 C 14.523941 6.967059 14.590642 7.001236 14.656683 7.036734 C 14.722723 7.07228 14.788008 7.1091 14.852585 7.147195 C 14.917115 7.185337 14.98089 7.224706 15.043909 7.265397 C 15.106881 7.306041 15.16905 7.34796 15.23037 7.391105 C 15.29169 7.434251 15.352113 7.478577 15.411686 7.52413 C 15.471212 7.569683 15.529842 7.616417 15.587527 7.664283 C 15.645212 7.712197 15.701905 7.761196 15.757655 7.811375 C 15.813405 7.861508 15.868116 7.912773 15.921788 7.965076 C 15.975461 8.017427 16.028095 8.070816 16.079643 8.125244 C 16.131239 8.179672 16.181654 8.235091 16.231031 8.291549 C 16.280361 8.348007 16.328558 8.405409 16.375621 8.463755 C 16.422685 8.522148 16.468569 8.581438 16.513273 8.641625 C 16.557976 8.701812 16.601452 8.762848 16.643701 8.824782 C 16.68595 8.886715 16.726972 8.949498 16.766719 9.013037 C 16.806466 9.076623 16.844938 9.140964 16.882136 9.20606 C 16.919334 9.271156 16.95521 9.336961 16.989811 9.403473 C 17.024366 9.470033 17.057598 9.537206 17.089462 9.605088 C 17.121373 9.672922 17.151868 9.741417 17.181041 9.810478 C 17.210214 9.87954 17.23797 9.949168 17.264358 10.019363 C 17.290746 10.08951 17.315718 10.160224 17.339273 10.231362 C 17.362829 10.302548 17.384968 10.374159 17.405644 10.446241 C 17.426367 10.518277 17.445627 10.590737 17.463424 10.663575 C 17.481267 10.736413 17.4976 10.809534 17.512517 10.883033 C 17.527434 10.956532 17.540841 11.030267 17.552783 11.104285 C 17.564774 11.178303 17.575253 11.25251 17.584222 11.326953 C 17.593239 11.401396 17.600744 11.475981 17.606787 11.550707 C 17.612782 11.625433 17.617313 11.700254 17.620382 11.775169 C 17.623403 11.850084 17.624961 11.925046 17.625008 12.000008 C 17.624961 12.074971 17.623403 12.149933 17.620382 12.224848 C 17.617313 12.299763 17.612782 12.374584 17.606787 12.44931 C 17.600744 12.524036 17.593239 12.598621 17.584222 12.673064 C 17.575253 12.747506 17.564774 12.821713 17.552783 12.895732 C 17.540841 12.96975 17.527434 13.043485 17.512517 13.116983 C 17.4976 13.190435 17.481267 13.263604 17.463424 13.336442 C 17.445627 13.409232 17.426367 13.481693 17.405644 13.553775 C 17.384968 13.625811 17.362829 13.697422 17.339273 13.768607 C 17.315718 13.839793 17.290746 13.91046 17.264358 13.980654 C 17.23797 14.050849 17.210214 14.120477 17.181041 14.189538 C 17.151868 14.2586 17.121373 14.327048 17.089462 14.394929 C 17.057598 14.462763 17.024366 14.529984 16.989811 14.596496 C 16.95521 14.663056 16.919334 14.72886 16.882136 14.793957 C 16.844938 14.859053 16.806466 14.923394 16.766719 14.986933 C 16.726972 15.050518 16.68595 15.113254 16.643701 15.175188 C 16.601452 15.237121 16.557976 15.298205 16.513273 15.358392 C 16.468569 15.418579 16.422685 15.477869 16.375621 15.536215 C 16.328558 15.594608 16.280361 15.65201 16.231031 15.708468 C 16.181654 15.764878 16.131239 15.820345 16.079643 15.874772 C 16.028095 15.9292 15.975461 15.98259 15.921788 16.034893 C 15.868116 16.087244 15.813405 16.138509 15.757655 16.188641 C 15.701905 16.238774 15.645212 16.28782 15.587527 16.335686 C 15.529842 16.3836 15.471212 16.430333 15.411686 16.475886 C 15.352113 16.52144 15.29169 16.565766 15.23037 16.608911 C 15.16905 16.652057 15.106881 16.693976 15.043909 16.734619 C 14.98089 16.775263 14.917115 16.81468 14.852585 16.852775 C 14.788008 16.890917 14.722723 16.927737 14.656683 16.963235 C 14.590642 16.998781 14.523941 17.032958 14.456532 17.065813 C 14.389169 17.098668 14.321146 17.130154 14.25251 17.160318 C 14.183826 17.190435 14.114623 17.219231 14.044806 17.24661 C 13.975036 17.273989 13.9047 17.299952 13.833892 17.324546 C 13.763036 17.349093 13.691756 17.372271 13.620004 17.393985 L 13.620004 18.554011 C 13.710733 18.531683 13.80099 18.507467 13.890727 18.48141 C 13.980512 18.455305 14.069636 18.427407 14.15824 18.39762 C 14.246798 18.367833 14.334742 18.336206 14.422024 18.302737 C 14.50926 18.269315 14.595835 18.234053 14.681607 18.196997 C 14.767427 18.159988 14.852396 18.121138 14.936611 18.080588 C 15.020778 18.039991 15.104096 17.997695 15.186516 17.953653 C 15.268937 17.90961 15.350414 17.863868 15.430946 17.816427 C 15.511479 17.768985 15.590973 17.719891 15.669475 17.669146 C 15.747931 17.6184 15.825348 17.566049 15.901632 17.512093 C 15.977916 17.458137 16.053067 17.402624 16.127085 17.345505 C 16.201056 17.288434 16.273847 17.229852 16.34541 17.169712 C 16.416973 17.109619 16.487262 17.048016 16.556229 16.984997 C 16.625244 16.921978 16.692889 16.857495 16.759213 16.791644 C 16.825536 16.725792 16.890444 16.658619 16.953935 16.590029 C 17.017474 16.521487 17.079549 16.45167 17.140161 16.380531 C 17.200773 16.309393 17.259874 16.237027 17.317464 16.163434 C 17.375102 16.08984 17.431135 16.015067 17.48561 15.939161 C 17.540132 15.863207 17.593003 15.786215 17.644315 15.70809 C 17.69558 15.629965 17.74524 15.550801 17.793248 15.470599 C 17.841209 15.390397 17.887517 15.309251 17.932174 15.227161 C 17.976783 15.145024 18.019692 15.062036 18.060856 14.978105 C 18.102019 14.894221 18.141435 14.809487 18.179058 14.723951 C 18.216681 14.638415 18.252557 14.552123 18.286592 14.465076 C 18.320674 14.378077 18.352868 14.290369 18.383316 14.202 C 18.413716 14.113632 18.442276 14.02465 18.468947 13.935101 C 18.495665 13.845552 18.520495 13.755437 18.543484 13.66485 C 18.566426 13.574263 18.58748 13.48325 18.606645 13.391766 C 18.625858 13.300282 18.643088 13.208468 18.658429 13.116275 C 18.673818 13.024083 18.687225 12.931608 18.698743 12.838896 C 18.710261 12.746138 18.719796 12.65319 18.727444 12.560054 C 18.735091 12.466917 18.740803 12.373639 18.744532 12.280267 C 18.748308 12.186895 18.750149 12.093475 18.750008 12.000008 C 18.750102 11.906542 18.748261 11.813122 18.744485 11.719797 C 18.740756 11.626425 18.735044 11.533147 18.727396 11.44001 C 18.719702 11.346874 18.710119 11.253974 18.698601 11.161215 C 18.687083 11.068503 18.673677 10.976028 18.658288 10.883836 C 18.642946 10.791691 18.625669 10.699876 18.606503 10.608392 C 18.587291 10.516955 18.566237 10.425943 18.543248 10.335356 C 18.520306 10.244769 18.495476 10.154701 18.468758 10.065152 C 18.44204 9.975603 18.41348 9.886668 18.38308 9.798299 C 18.352632 9.709931 18.320391 9.62227 18.286356 9.535224 C 18.252274 9.448224 18.216445 9.361932 18.178775 9.276396 C 18.141152 9.190907 18.101736 9.106173 18.060572 9.022289 C 18.019362 8.938405 17.9765 8.855418 17.931843 8.773328 C 17.887234 8.69119 17.840925 8.610044 17.792918 8.529889 C 17.74491 8.449734 17.695297 8.370571 17.643984 8.292446 C 17.592719 8.214321 17.539802 8.137329 17.485327 8.061423 C 17.430805 7.985516 17.374772 7.910743 17.317181 7.837197 C 17.259591 7.763603 17.200442 7.691238 17.13983 7.620146 C 17.079219 7.549008 17.017191 7.479191 16.953652 7.410648 C 16.890161 7.342106 16.825206 7.274886 16.75893 7.209034 C 16.692606 7.14323 16.624961 7.078794 16.555946 7.015775 C 16.486979 6.952708 16.41669 6.891153 16.345127 6.83106 C 16.273611 6.770967 16.20082 6.712338 16.126849 6.655267 C 16.052831 6.598196 15.97768 6.542682 15.901396 6.488726 C 15.825112 6.43477 15.747695 6.382467 15.669239 6.331721 C 15.590784 6.280975 15.51129 6.231881 15.430757 6.184487 C 15.350225 6.137046 15.268748 6.091304 15.186375 6.047261 C 15.103954 6.003218 15.020637 5.960922 14.936469 5.920373 C 14.852255 5.879776 14.767285 5.840973 14.681513 5.803917 C 14.595693 5.766908 14.509166 5.731645 14.42193 5.698224 C 14.334647 5.664755 14.246751 5.633175 14.158193 5.603388 C 14.069589 5.573602 13.980465 5.545656 13.890727 5.519598 C 13.80099 5.493541 13.710733 5.469325 13.620004 5.446997 Z M 13.620004 5.446997 " stroke="#0b53bf" stroke-width="0.03" stroke-opacity="1" stroke-miterlimit="10"/></svg>