<?xml version="1.0" encoding="utf-8"?>
<svg xmlns="http://www.w3.org/2000/svg" width="1520" zoomAndPan="magnify" viewBox="0 0 1140 809.999993" height="1080" preserveAspectRatio="xMidYMid meet" version="1.0">
  <path fill="#c0020a" d="M 847.928 18.248 C 777.077 26.115 747.204 41.922 697.266 80.137 L 615.427 16.785 C 498.185 75.391 403.5 145.484 311.336 145.484 L 248.629 139.348 C 227.723 206.359 183.621 258.691 116.617 296.313 C 162.656 308.891 202.111 338.246 235.681 380.097 C 250.007 417.891 208.977 494.084 170.775 552.408 C 132.573 610.732 70.634 681.724 33.404 710.037 C 32.9 734.881 41.934 748.005 68.665 764.95 C 95.391 781.899 119.039 794.965 153.879 801.273 C 188.719 807.582 222.855 804.836 270.441 791.961 C 318.023 779.082 364.632 736.747 380.858 677.759 C 433.022 728.482 519.111 752.44 581.657 752.44 C 608.189 752.436 645.444 739.342 671.28 720.4 C 676.858 716.314 683.36 711.569 686.836 707.159 C 719.059 722.71 746.3 734.647 776.428 742.24 C 806.561 749.834 860.115 761.317 901.181 751.774 C 942.251 742.231 977.953 721.66 983.879 691.105 C 992.578 646.234 961.512 609.168 915.488 585.707 C 869.465 562.238 853.77 554.844 846.871 538.004 C 839.977 521.168 849.18 495.359 854.141 474.625 C 859.109 453.898 856.082 432.238 847.555 418.973 C 839.023 405.711 828.086 395.922 814.383 383.086 C 800.676 370.25 792.551 358.332 794.16 332.43 C 795.762 306.523 804.484 272.752 804.484 272.752 C 803.934 271.283 812.685 243.307 833.712 234.739 C 851.895 227.33 873.02 225.606 873.648 226.549 C 873.648 226.549 910.952 218.033 924.343 242.348 C 937.734 266.663 918.093 277.292 893.394 294.481 C 869.687 310.98 853.675 319.916 850.754 352.7 C 846.888 396.084 896.32 414.066 932.895 411.499 C 986.349 407.747 1001.442 400.697 1040.959 365.41 C 1051.171 356.291 1072.959 324.783 1076.815 313.575 C 1095.622 258.915 1097.86 247.291 1096.888 218.245 C 1095.499 176.738 1071.332 148.912 1033.699 123.755 C 1033.708 123.761 1019.631 66.876 980.711 44.731 C 941.791 22.586 918.78 10.377 847.928 18.248 Z M 841.297 49.392 C 878.352 44.408 930.07 43.375 962.285 68.109 C 987.418 87.406 1010.992 105.344 1006.828 141.164 C 1039.141 155.375 1068.004 190.387 1069.309 217.035 C 1070.949 250.555 1060.59 291.113 1035.453 328.797 C 1010.293 366.445 966.441 386.945 932.984 386.945 C 907.82 386.945 874.629 380.457 875.727 354.918 C 876.879 328.18 897.919 324.496 926.662 302.744 C 944.861 288.972 964.385 276.844 958.953 254.074 C 953.325 230.481 948.285 210.622 896.618 184.534 C 863.047 176.156 831.789 162.234 804.609 145.484 C 777.402 128.758 755.934 113.762 730.789 97.008 C 757.246 75.902 807.926 53.884 841.297 49.392 Z M 613.074 239.75 C 642.355 239.75 704.555 254.543 767.348 275.414 L 760.758 326.75 C 760.758 326.75 721.559 317.809 683.04 319.641 C 644.524 321.477 619.694 333.572 619.694 333.572 C 619.694 333.572 607.642 392.259 612.083 446.466 C 616.517 500.673 630.254 552.514 630.254 552.514 C 630.254 552.514 607.445 556.422 591.941 556.14 C 576.434 555.863 561.063 551.828 561.063 551.828 L 552.863 572.758 C 551.641 575.727 553.969 578.906 557.18 578.891 L 604.211 578.664 C 604.406 578.664 604.469 578.691 604.664 578.664 L 662.832 570.711 C 646.074 507.961 632.73 429.934 644.426 359.008 C 644.426 359.008 672.625 345.619 701.004 345.264 C 729.379 344.905 758.031 357.641 758.031 357.641 L 755.496 386.055 C 755.414 386.969 754.594 387.629 753.688 387.523 L 725.996 384.219 C 684.105 384.219 663.285 396.801 663.285 421.926 C 663.285 447.086 669.559 459.637 682.145 459.637 L 688.051 453.727 C 688.242 453.539 688.277 453.316 688.277 453.047 L 688.277 441.008 C 688.277 440.902 688.477 440.656 688.504 440.555 L 692.594 427.832 C 692.957 426.75 696.879 423.333 696.879 424.482 C 696.879 441.29 709.176 452.918 719.863 453.273 C 730.551 453.633 747.355 444.188 747.355 444.188 C 747.355 444.188 751.348 472.766 739.375 515.289 C 727.406 557.809 702.4 613.045 702.4 613.045 C 702.4 613.045 653.234 625.21 612.164 625.858 C 571.09 626.511 529.004 615.008 529.004 615.008 C 529.004 615.008 518.781 621.254 518.781 629.09 C 518.781 636.93 525.367 640.449 525.367 640.449 C 525.367 640.449 562.801 649.121 604.653 649.777 C 646.5 650.437 695.285 638.727 695.285 638.727 C 678.527 688.926 623.355 723.359 581.492 723.359 C 501.883 723.359 433.266 699.449 387.227 644.992 C 387.227 644.992 375.265 606.603 376.488 542.314 C 377.687 479.288 374.812 390.793 374.812 390.793 L 376.773 315.164 C 460.531 269.137 546.047 239.75 613.074 239.75 Z M 493.112 335.718 C 462.287 331.769 433.058 343.01 395.371 368.053 L 418.125 390.582 C 443.262 373.797 468.996 364.445 493.559 365.367 C 518.117 366.285 537.641 371.727 537.641 371.727 L 548.79 337.154 C 548.79 337.154 523.94 339.667 493.112 335.718 Z M 344.508 333.336 C 344.508 333.34 348.34 453.449 347.012 537.547 C 345.672 621.648 356.436 656.563 336.432 699.149 C 315.647 743.388 254.933 771.71 206.343 775.401 C 143.64 780.163 88.857 745.012 63.72 719.852 C 135.047 672.453 264.676 495.07 277.258 377.859 L 344.508 333.336 Z M 499.922 396.715 C 462.262 396.715 436.53 407.191 415.573 428.063 L 424.392 452.825 C 424.392 465.404 428.719 472.129 449.707 472.129 C 466.438 472.129 459.483 460.423 459.483 439.438 L 482.879 432.605 C 483.691 431.793 485.215 432.719 484.699 433.738 L 481.063 440.781 C 481.063 457.535 489.301 465.77 506.055 465.77 C 522.84 465.77 531.277 457.535 531.277 440.781 C 531.277 439.637 532.965 439.242 533.32 440.328 L 537.641 453.273 C 537.672 453.379 537.641 453.395 537.641 453.504 L 537.641 465.539 C 537.641 465.805 537.68 466.035 537.863 466.223 L 543.773 472.129 C 556.328 472.129 562.633 459.578 562.633 434.422 C 562.633 409.293 541.785 396.715 499.922 396.715 Z M 785.438 394.734 C 785.438 394.734 826.142 422.629 829.923 447.824 C 833.712 473.016 819.982 503.007 820.107 522.394 C 820.2 536.812 822.391 551.116 830.067 561.362 C 832.72 564.893 880.921 595.134 885.741 599.81 C 906.702 612.306 918.77 618.077 948.082 643.21 C 948.082 643.21 968.169 666.531 956.455 692.367 C 944.744 718.203 893.332 727.337 847.293 727.337 C 801.226 727.337 737.317 705.745 703.864 684.847 C 737.497 612.347 757.889 558.432 764.709 536.154 C 777.604 494.033 784.672 440.508 785.438 394.734 Z M 609.438 675.887 L 569.902 676.34 C 566.156 676.371 562.426 676.699 558.77 677.473 L 551.953 678.84 C 551.195 679.027 550.949 680.102 551.5 680.656 L 561.039 687.473 C 562.613 688.566 564.57 689.047 566.492 689.063 L 613.754 689.285 C 615.715 689.293 617.559 688.539 619.207 687.473 L 629.887 680.656 C 630.629 680.172 630.293 679.035 629.43 678.84 L 623.977 677.473 C 619.227 676.34 614.32 675.828 609.438 675.887 Z M 609.438 675.887" fill-opacity="1" fill-rule="nonzero"/>
</svg>