<svg xmlns="http://www.w3.org/2000/svg" xmlns:xlink="http://www.w3.org/1999/xlink" width="1520" zoomAndPan="magnify" viewBox="0 0 1140 809.999993" height="1080" preserveAspectRatio="xMidYMid meet" version="1.0"><path fill="#c0020a" d="M 847.480469 6.160156 C 776.628906 14.027344 746.308594 41.027344 696.371094 79.242188 L 630.648438 48.570312 C 513.40625 107.175781 403.5 145.484375 311.335938 145.484375 L 248.628906 139.347656 C 227.722656 206.359375 183.621094 258.691406 116.617188 296.3125 C 162.65625 308.890625 202.558594 336.007812 236.128906 377.859375 C 236.128906 440.722656 167.339844 571.976562 115.710938 620.007812 C 64.078125 668.035156 33.476562 666.054688 23.554688 706.007812 C 23.050781 730.851562 41.039062 749.347656 67.769531 766.292969 C 94.496094 783.242188 119.039062 794.964844 153.878906 801.273438 C 188.71875 807.582031 222.855469 804.835938 270.441406 791.960938 C 318.023438 779.082031 364.183594 740.328125 380.410156 681.339844 C 432.574219 732.0625 515.976562 758.707031 578.523438 758.707031 C 605.054688 758.703125 649.472656 744.265625 675.308594 725.324219 C 680.886719 721.238281 685.597656 716.941406 689.074219 712.53125 C 721.296875 728.082031 745.851562 736.4375 775.980469 744.03125 C 806.113281 751.625 860.5625 762.660156 901.628906 753.117188 C 942.699219 743.574219 977.953125 721.660156 983.878906 691.105469 C 992.578125 646.234375 961.511719 609.167969 915.488281 585.707031 C 869.464844 562.238281 853.769531 554.84375 846.871094 538.003906 C 839.976562 521.167969 849.179688 495.359375 854.140625 474.625 C 859.109375 453.898438 856.082031 432.238281 847.554688 418.972656 C 839.023438 405.710938 828.085938 395.921875 814.382812 383.085938 C 800.675781 370.25 792.550781 358.332031 794.160156 332.429688 C 795.761719 306.523438 804.484375 277.675781 804.484375 277.675781 L 871.410156 224.757812 C 871.410156 224.757812 922.550781 229.570312 923.894531 249.0625 C 925.238281 268.558594 915.359375 277.691406 889.8125 293.585938 C 864.269531 309.476562 836.875 322.832031 836.875 356.28125 C 836.875 402.335938 868.457031 428.0625 927.074219 428.0625 C 994.074219 428.0625 1043.179688 403.074219 1074.535156 352.875 C 1105.949219 302.617188 1120.167969 253.925781 1117.480469 207.949219 C 1115.070312 166.78125 1090.582031 139.0625 1052.949219 113.90625 C 1052.949219 113.90625 1024.636719 48.726562 992.796875 31.300781 C 960.960938 13.871094 918.332031 -1.710938 847.480469 6.160156 Z M 841.296875 52.078125 C 878.351562 47.09375 930.070312 43.375 962.285156 68.109375 C 987.417969 87.40625 1010.992188 105.34375 1006.828125 141.164062 C 1039.140625 155.375 1068.003906 190.386719 1069.308594 217.035156 C 1070.949219 250.554688 1060.589844 291.113281 1035.453125 328.796875 C 1010.292969 366.445312 966.441406 386.945312 932.984375 386.945312 C 907.820312 386.945312 874.628906 380.457031 875.726562 354.917969 C 876.878906 328.179688 900.039062 328.652344 929.347656 307.667969 C 945.433594 296.007812 961.964844 278.367188 963.429688 254.96875 C 965.257812 225.8125 954.3125 204.085938 895.722656 183.191406 C 862.152344 174.8125 831.789062 162.234375 804.609375 145.484375 C 777.402344 128.757812 755.933594 113.761719 730.789062 97.007812 C 757.246094 75.902344 807.925781 56.570312 841.296875 52.078125 Z M 613.074219 239.75 C 642.355469 239.75 704.554688 254.542969 767.347656 275.414062 L 760.757812 326.75 C 760.757812 326.75 720.664062 313.332031 682.144531 315.164062 C 643.628906 317 606.710938 334.019531 606.710938 334.019531 C 606.710938 334.019531 602.269531 392.707031 606.710938 446.914062 C 611.144531 501.121094 624.433594 550.722656 624.433594 550.722656 C 624.433594 550.722656 607.445312 554.183594 591.941406 553.902344 C 576.433594 553.625 562.40625 549.589844 562.40625 549.589844 L 552.863281 572.757812 C 551.640625 575.726562 553.96875 578.90625 557.179688 578.890625 L 604.210938 578.664062 C 604.40625 578.664062 604.46875 578.691406 604.664062 578.664062 L 662.832031 570.710938 C 646.074219 507.960938 632.730469 429.933594 644.425781 359.007812 C 644.425781 359.007812 672.625 353.230469 701.003906 352.875 C 729.378906 352.515625 758.03125 357.640625 758.03125 357.640625 L 755.496094 386.054688 C 755.414062 386.96875 754.59375 387.628906 753.6875 387.523438 L 725.996094 384.21875 C 684.105469 384.21875 663.285156 396.800781 663.285156 421.925781 C 663.285156 447.085938 669.558594 459.636719 682.144531 459.636719 L 688.050781 453.726562 C 688.242188 453.539062 688.277344 453.316406 688.277344 453.046875 L 688.277344 441.007812 C 688.277344 440.902344 688.476562 440.65625 688.503906 440.554688 L 692.59375 427.832031 C 692.957031 426.75 694.640625 426.914062 694.640625 428.0625 C 694.640625 444.871094 709.175781 452.917969 719.863281 453.273438 C 730.550781 453.632812 747.355469 444.1875 747.355469 444.1875 C 747.355469 444.1875 751.347656 472.765625 739.375 515.289062 C 727.40625 557.808594 702.847656 610.359375 702.847656 610.359375 C 702.847656 610.359375 653.234375 621.628906 612.164062 622.277344 C 571.089844 622.929688 529.003906 615.007812 529.003906 615.007812 C 529.003906 615.007812 518.78125 621.253906 518.78125 629.089844 C 518.78125 636.929688 525.367188 640.449219 525.367188 640.449219 C 525.367188 640.449219 561.90625 650.015625 603.757812 650.671875 C 645.605469 651.332031 695.285156 638.726562 695.285156 638.726562 C 678.527344 688.925781 623.355469 723.359375 581.492188 723.359375 C 501.882812 723.359375 433.265625 699.449219 387.226562 644.992188 C 387.226562 644.992188 390.933594 604.8125 387.679688 541.867188 C 384.425781 478.914062 380.183594 389.898438 380.183594 389.898438 L 376.773438 315.164062 C 460.53125 269.136719 546.046875 239.75 613.074219 239.75 Z M 493.558594 327.660156 C 462.734375 323.710938 430.820312 340.324219 393.132812 365.367188 L 418.125 390.582031 C 443.261719 373.796875 468.996094 364.445312 493.558594 365.367188 C 518.117188 366.285156 537.640625 371.726562 537.640625 371.726562 L 550.132812 334.019531 C 550.132812 334.019531 524.386719 331.609375 493.558594 327.660156 Z M 344.507812 333.335938 C 344.507812 333.339844 348.339844 453.449219 347.011719 537.546875 C 345.671875 621.648438 347.929688 647.609375 327.925781 690.195312 C 307.140625 734.433594 268.363281 757.832031 219.773438 761.523438 C 157.070312 766.285156 91.542969 738.296875 66.40625 713.136719 C 147.582031 679.167969 264.675781 495.070312 277.257812 377.859375 Z M 499.921875 396.714844 C 462.261719 396.714844 432.949219 407.191406 411.992188 428.0625 L 418.125 453.273438 C 418.125 465.851562 428.71875 472.128906 449.707031 472.128906 C 466.4375 472.128906 474.703125 461.765625 474.703125 440.78125 L 482.878906 432.605469 C 483.691406 431.792969 485.214844 432.71875 484.699219 433.738281 L 481.0625 440.78125 C 481.0625 457.535156 489.300781 465.769531 506.054688 465.769531 C 522.839844 465.769531 531.277344 457.535156 531.277344 440.78125 C 531.277344 439.636719 532.964844 439.242188 533.320312 440.328125 L 537.640625 453.273438 C 537.671875 453.378906 537.640625 453.394531 537.640625 453.503906 L 537.640625 465.539062 C 537.640625 465.804688 537.679688 466.035156 537.863281 466.222656 L 543.773438 472.128906 C 556.328125 472.128906 562.632812 459.578125 562.632812 434.421875 C 562.632812 409.292969 541.785156 396.714844 499.921875 396.714844 Z M 785.4375 405.03125 C 785.4375 405.03125 817.1875 422.628906 820.96875 447.824219 C 824.757812 473.015625 807.894531 507.484375 808.019531 526.871094 C 808.113281 541.289062 808.066406 548.429688 815.742188 558.675781 C 818.394531 562.207031 821.828125 566.035156 826.648438 570.710938 C 847.609375 583.207031 880.269531 605.09375 909.582031 630.226562 C 909.582031 630.226562 942.652344 659.816406 930.9375 685.652344 C 919.226562 711.488281 891.09375 719.726562 845.054688 719.726562 C 798.988281 719.726562 745.375 704.402344 711.921875 683.503906 C 745.554688 611.003906 765.5 560.222656 772.320312 537.945312 C 785.214844 495.824219 784.671875 450.804688 785.4375 405.03125 Z M 609.4375 675.886719 L 569.902344 676.339844 C 566.15625 676.371094 562.425781 676.699219 558.769531 677.472656 L 551.953125 678.839844 C 551.195312 679.027344 550.949219 680.101562 551.5 680.65625 L 561.039062 687.472656 C 562.613281 688.566406 564.570312 689.046875 566.492188 689.0625 L 613.753906 689.285156 C 615.714844 689.292969 617.558594 688.539062 619.207031 687.472656 L 629.886719 680.65625 C 630.628906 680.171875 630.292969 679.035156 629.429688 678.839844 L 623.976562 677.472656 C 619.226562 676.339844 614.320312 675.828125 609.4375 675.886719 Z M 609.4375 675.886719 " fill-opacity="1" fill-rule="nonzero"/></svg>